<mxfile host="65bd71144e">
    <diagram id="Tq5MqxDKmGTj65B0wUQO" name="Page-1">
        <mxGraphModel dx="549" dy="545" grid="1" gridSize="10" guides="1" tooltips="1" connect="1" arrows="1" fold="1" page="1" pageScale="1" pageWidth="850" pageHeight="1100" math="0" shadow="0">
            <root>
                <mxCell id="0"/>
                <mxCell id="1" parent="0"/>
                <mxCell id="7" style="edgeStyle=none;html=1;exitX=0.5;exitY=1;exitDx=0;exitDy=0;" edge="1" parent="1" source="2" target="3">
                    <mxGeometry relative="1" as="geometry"/>
                </mxCell>
                <mxCell id="2" value="&lt;div style=&quot;color: rgb(86 , 88 , 105) ; background-color: rgb(250 , 251 , 252) ; font-family: &amp;#34;victor mono&amp;#34; , &amp;#34;courier new&amp;#34; , monospace , &amp;#34;consolas&amp;#34; , &amp;#34;courier new&amp;#34; , monospace ; font-size: 14px ; line-height: 19px&quot;&gt;Inicio&lt;/div&gt;" style="ellipse;whiteSpace=wrap;html=1;" vertex="1" parent="1">
                    <mxGeometry x="350" y="80" width="100" height="40" as="geometry"/>
                </mxCell>
                <mxCell id="8" value="" style="edgeStyle=none;html=1;" edge="1" parent="1" source="3" target="4">
                    <mxGeometry relative="1" as="geometry"/>
                </mxCell>
                <mxCell id="3" value="&#10;&#10;&lt;div style=&quot;color: rgb(86, 88, 105); background-color: rgb(250, 251, 252); font-family: &amp;quot;victor mono&amp;quot;, &amp;quot;courier new&amp;quot;, monospace, consolas, &amp;quot;courier new&amp;quot;, monospace; font-weight: normal; font-size: 14px; line-height: 19px;&quot;&gt;&lt;div&gt;&lt;span style=&quot;color: #565869&quot;&gt;radius&lt;/span&gt;&lt;span style=&quot;color: #777777&quot;&gt;,&lt;/span&gt;&lt;span style=&quot;color: #565869&quot;&gt; &lt;/span&gt;&lt;span style=&quot;color: #565869&quot;&gt;height&lt;/span&gt;&lt;/div&gt;&lt;/div&gt;&#10;&#10;" style="shape=parallelogram;perimeter=parallelogramPerimeter;whiteSpace=wrap;html=1;fixedSize=1;" vertex="1" parent="1">
                    <mxGeometry x="320" y="140" width="160" height="40" as="geometry"/>
                </mxCell>
                <mxCell id="9" value="" style="edgeStyle=none;html=1;" edge="1" parent="1" source="4" target="5">
                    <mxGeometry relative="1" as="geometry"/>
                </mxCell>
                <mxCell id="4" value="&#10;&#10;&lt;div style=&quot;color: rgb(86, 88, 105); background-color: rgb(250, 251, 252); font-family: &amp;quot;victor mono&amp;quot;, &amp;quot;courier new&amp;quot;, monospace, consolas, &amp;quot;courier new&amp;quot;, monospace; font-weight: normal; font-size: 14px; line-height: 19px;&quot;&gt;&lt;div&gt;&lt;span style=&quot;color: #565869&quot;&gt;area&lt;/span&gt;&lt;span style=&quot;color: #565869&quot;&gt; &lt;/span&gt;&lt;span style=&quot;color: #777777&quot;&gt;=&lt;/span&gt;&lt;span style=&quot;color: #565869&quot;&gt; &lt;/span&gt;&lt;span style=&quot;color: #ff5c57&quot;&gt;2&lt;/span&gt;&lt;span style=&quot;color: #565869&quot;&gt; &lt;/span&gt;&lt;span style=&quot;color: #777777&quot;&gt;*&lt;/span&gt;&lt;span style=&quot;color: #565869&quot;&gt; &lt;/span&gt;&lt;span style=&quot;color: #565869&quot;&gt;math&lt;/span&gt;&lt;span style=&quot;color: #777777&quot;&gt;.&lt;/span&gt;&lt;span style=&quot;color: #a8759a&quot;&gt;pi&lt;/span&gt;&lt;span style=&quot;color: #565869&quot;&gt; &lt;/span&gt;&lt;span style=&quot;color: #777777&quot;&gt;*&lt;/span&gt;&lt;span style=&quot;color: #565869&quot;&gt; &lt;/span&gt;&lt;span style=&quot;color: #565869&quot;&gt;radius&lt;/span&gt;&lt;span style=&quot;color: #565869&quot;&gt; &lt;/span&gt;&lt;span style=&quot;color: #777777&quot;&gt;*&lt;/span&gt;&lt;span style=&quot;color: #565869&quot;&gt; &lt;/span&gt;&lt;span style=&quot;color: #777777&quot;&gt;(&lt;/span&gt;&lt;span style=&quot;color: #565869&quot;&gt;radius&lt;/span&gt;&lt;span style=&quot;color: #565869&quot;&gt; &lt;/span&gt;&lt;span style=&quot;color: #777777&quot;&gt;+&lt;/span&gt;&lt;span style=&quot;color: #565869&quot;&gt; &lt;/span&gt;&lt;span style=&quot;color: #565869&quot;&gt;height&lt;/span&gt;&lt;span style=&quot;color: #777777&quot;&gt;)&lt;/span&gt;&lt;span style=&quot;color: #ff1277&quot;&gt;;&lt;/span&gt;&lt;/div&gt;&lt;div&gt;&lt;span style=&quot;color: #565869&quot;&gt;volume&lt;/span&gt;&lt;span style=&quot;color: #565869&quot;&gt; &lt;/span&gt;&lt;span style=&quot;color: #777777&quot;&gt;=&lt;/span&gt;&lt;span style=&quot;color: #565869&quot;&gt; &lt;/span&gt;&lt;span style=&quot;color: #565869&quot;&gt;math&lt;/span&gt;&lt;span style=&quot;color: #777777&quot;&gt;.&lt;/span&gt;&lt;span style=&quot;color: #a8759a&quot;&gt;pi&lt;/span&gt;&lt;span style=&quot;color: #565869&quot;&gt; &lt;/span&gt;&lt;span style=&quot;color: #777777&quot;&gt;*&lt;/span&gt;&lt;span style=&quot;color: #565869&quot;&gt; &lt;/span&gt;&lt;span style=&quot;color: #565869&quot;&gt;radius&lt;/span&gt;&lt;span style=&quot;color: #565869&quot;&gt; &lt;/span&gt;&lt;span style=&quot;color: #777777&quot;&gt;**&lt;/span&gt;&lt;span style=&quot;color: #565869&quot;&gt; &lt;/span&gt;&lt;span style=&quot;color: #ff5c57&quot;&gt;2&lt;/span&gt;&lt;span style=&quot;color: #565869&quot;&gt; &lt;/span&gt;&lt;span style=&quot;color: #777777&quot;&gt;*&lt;/span&gt;&lt;span style=&quot;color: #565869&quot;&gt; &lt;/span&gt;&lt;span style=&quot;color: #565869&quot;&gt;height&lt;/span&gt;&lt;span style=&quot;color: #ff1277&quot;&gt;;&lt;/span&gt;&lt;/div&gt;&lt;/div&gt;&#10;&#10;" style="shape=process;whiteSpace=wrap;html=1;backgroundOutline=1;size=0.047619047619047616;" vertex="1" parent="1">
                    <mxGeometry x="190" y="200" width="420" height="40" as="geometry"/>
                </mxCell>
                <mxCell id="10" value="" style="edgeStyle=none;html=1;" edge="1" parent="1" source="5" target="6">
                    <mxGeometry relative="1" as="geometry"/>
                </mxCell>
                <mxCell id="5" value="&#10;&#10;&lt;div style=&quot;color: rgb(86, 88, 105); background-color: rgb(250, 251, 252); font-family: &amp;quot;victor mono&amp;quot;, &amp;quot;courier new&amp;quot;, monospace, consolas, &amp;quot;courier new&amp;quot;, monospace; font-weight: normal; font-size: 14px; line-height: 19px;&quot;&gt;&lt;div&gt;&lt;span style=&quot;color: #f767bb&quot;&gt;F&lt;/span&gt;&lt;span style=&quot;color: #cf9c00&quot;&gt;'El rea es &lt;/span&gt;&lt;span style=&quot;color: #565869&quot;&gt;{&lt;/span&gt;&lt;span style=&quot;color: #565869&quot;&gt;area&lt;/span&gt;&lt;span style=&quot;color: #f767bb&quot;&gt;:.2f&lt;/span&gt;&lt;span style=&quot;color: #565869&quot;&gt;}&lt;/span&gt;&lt;span style=&quot;color: #cf9c00&quot;&gt; y el volumen es &lt;/span&gt;&lt;span style=&quot;color: #565869&quot;&gt;{&lt;/span&gt;&lt;span style=&quot;color: #565869&quot;&gt;volume&lt;/span&gt;&lt;span style=&quot;color: #f767bb&quot;&gt;:.2f&lt;/span&gt;&lt;span style=&quot;color: #565869&quot;&gt;}&lt;/span&gt;&lt;span style=&quot;color: #cf9c00&quot;&gt;'&lt;/span&gt;&lt;/div&gt;&lt;/div&gt;&#10;&#10;" style="shape=document;whiteSpace=wrap;html=1;boundedLbl=1;" vertex="1" parent="1">
                    <mxGeometry x="190" y="270" width="420" height="50" as="geometry"/>
                </mxCell>
                <mxCell id="6" value="&lt;div style=&quot;color: rgb(86 , 88 , 105) ; background-color: rgb(250 , 251 , 252) ; font-family: &amp;#34;victor mono&amp;#34; , &amp;#34;courier new&amp;#34; , monospace , &amp;#34;consolas&amp;#34; , &amp;#34;courier new&amp;#34; , monospace ; font-size: 14px ; line-height: 19px&quot;&gt;&lt;div style=&quot;font-family: &amp;#34;victor mono&amp;#34; , &amp;#34;courier new&amp;#34; , monospace , &amp;#34;consolas&amp;#34; , &amp;#34;courier new&amp;#34; , monospace ; line-height: 19px&quot;&gt;Fin&lt;/div&gt;&lt;/div&gt;" style="ellipse;whiteSpace=wrap;html=1;" vertex="1" parent="1">
                    <mxGeometry x="350" y="350" width="100" height="40" as="geometry"/>
                </mxCell>
            </root>
        </mxGraphModel>
    </diagram>
</mxfile>